<?xml version="1.0" encoding="UTF-8"?>
<svg width="22px" height="22px" viewBox="0 0 22 22" version="1.1" xmlns="http://www.w3.org/2000/svg" xmlns:xlink="http://www.w3.org/1999/xlink">
    <!-- Generator: Sketch 42 (36781) - http://www.bohemiancoding.com/sketch -->
    <title>facebook@3x</title>
    <desc>Created with Sketch.</desc>
    <defs></defs>
    <g id="Page-1" stroke="none" stroke-width="1" fill="none" fill-rule="evenodd">
        <g id="Desktop-HD" transform="translate(-456.000000, -411.000000)" fill="#FFFFFF">
            <path d="M476.78581,411 L457.21419,411 C456.543459,411 456,411.543459 456,412.21419 L456,431.78581 C456,432.456376 456.543459,433 457.21419,433 L467.750852,433 L467.750852,424.480475 L464.883864,424.480475 L464.883864,421.160206 L467.750852,421.160206 L467.750852,418.711631 C467.750852,415.870031 469.48641,414.322742 472.021289,414.322742 C473.235479,414.322742 474.279122,414.413168 474.583205,414.453558 L474.583205,417.423172 L472.825144,417.423996 C471.446507,417.423996 471.179599,418.079065 471.179599,419.040361 L471.179599,421.160206 L474.467474,421.160206 L474.039334,424.480475 L471.179599,424.480475 L471.179599,433 L476.78581,433 C477.456376,433 478,432.456376 478,431.78581 L478,412.21419 C478,411.543459 477.456376,411 476.78581,411" id="facebook"></path>
        </g>
    </g>
</svg>